<?xml version="1.0" standalone="no"?><!DOCTYPE svg PUBLIC "-//W3C//DTD SVG 1.1//EN" "http://www.w3.org/Graphics/SVG/1.1/DTD/svg11.dtd"><svg t="1685792721752" class="icon" viewBox="0 0 1024 1024" version="1.1" xmlns="http://www.w3.org/2000/svg" p-id="1679" xmlns:xlink="http://www.w3.org/1999/xlink" width="200" height="200"><path d="M715.90074 31.573333A110.933333 110.933333 0 0 0 616.990874 92.16c-211.524267-42.129067-423.552 70.126933-507.648 268.8a450.1248 450.1248 0 0 0-28.680534 96.785067 90.837333 90.837333 0 0 0 4.206934 180.906666c55.552 244.6592 298.922667 397.960533 543.573333 342.4A454.3232 454.3232 0 0 0 810.69754 893.525333a132.9152 132.9152 0 0 0 79.803734 26.530134c73.642667 0 133.546667-59.904 133.546666-133.538134a133.538133 133.538133 0 0 0-62.293333-112.9216 453.973333 453.973333 0 0 0-112.4608-457.147733q-15.36-15.36-31.9488-29.013333A110.933333 110.933333 0 0 0 715.90074 31.573333zM180.084207 530.773333a91.1104 91.1104 0 0 0-64.853333-70.263466C152.325274 261.768533 325.850607 117.76 528.013807 117.879467a421.495467 421.495467 0 0 1 78.301867 7.261866 111.104 111.104 0 0 0 40.772266 104.354134l-73.2416 138.385066a175.377067 175.377067 0 0 0-45.832533-6.0672c-94.72 0-172.1088 75.1616-175.786667 168.96z m535.893333-277.333333a110.685867 110.685867 0 0 0 82.568534-36.864q13.653333 11.52 26.453333 24.285867a420.693333 420.693333 0 0 1 105.2416 418.133333 133.4784 133.4784 0 0 0-144.3584 44.714667l-110.3616-70.135467a174.993067 174.993067 0 0 0 28.4416-95.812267c0-68.906667-39.816533-128.674133-97.646933-157.533866l70.826666-133.76a110.933333 110.933333 0 0 0 38.775467 6.971733zM528.04794 679.253333C450.036207 679.253333 386.590874 615.773867 386.590874 537.762133S450.002074 396.288 528.013807 396.288s141.474133 63.4624 141.474133 141.474133S606.02554 679.253333 528.013807 679.253333z m-437.154133-74.888533a56.362667 56.362667 0 1 1 56.32-56.405333v0.042666a56.430933 56.430933 0 0 1-56.32 56.362667z m437.12 353.28c-194.7648 0.085333-364.014933-133.802667-408.746667-323.362133A91.153067 91.153067 0 0 0 180.084207 565.239467h174.08c13.226667 84.0192 86.126933 148.48 173.7984 148.48a175.479467 175.479467 0 0 0 125.806933-53.077334L768.030874 733.2352a133.307733 133.307733 0 0 0 17.723733 136.0128 418.321067 418.321067 0 0 1-257.7664 88.405333z m362.496-72.072533a99.072 99.072 0 1 1 99.072-99.072 99.1744 99.1744 0 0 1-99.072 99.072z m-97.792-743.159467a76.663467 76.663467 0 1 1-76.663467-76.663467 76.654933 76.654933 0 0 1 76.663467 76.663467z" p-id="1680" fill="#ffffff"></path></svg>